<mxfile host="Electron" modified="2025-03-10T22:40:42.318Z" agent="Mozilla/5.0 (Windows NT 10.0; Win64; x64) AppleWebKit/537.36 (KHTML, like Gecko) draw.io/24.5.3 Chrome/124.0.6367.207 Electron/30.0.6 Safari/537.36" etag="z9-SV9UErWLAv5qNd06m" version="24.5.3" type="device" pages="2">
  <diagram name="Electrical Supply Circuit" id="FNXbMA2fD6UEkSyN5LRY">
    <mxGraphModel dx="1313" dy="776" grid="1" gridSize="10" guides="1" tooltips="1" connect="1" arrows="1" fold="1" page="1" pageScale="1" pageWidth="1169" pageHeight="827" math="0" shadow="0">
      <root>
        <mxCell id="0" />
        <mxCell id="1" parent="0" />
        <mxCell id="KrD2VouBfRfHa8hHg-D0-107" value="" style="rounded=0;whiteSpace=wrap;html=1;fillColor=none;dashed=1;dashPattern=8 8;" parent="1" vertex="1">
          <mxGeometry x="23" y="415" width="307" height="376" as="geometry" />
        </mxCell>
        <mxCell id="KrD2VouBfRfHa8hHg-D0-7" value="WELDING ARM MANIPULATOR&lt;div style=&quot;font-size: 18px;&quot;&gt;ELECTRICAL SUPPLY CIRCUIT&lt;/div&gt;" style="text;html=1;align=center;verticalAlign=middle;resizable=0;points=[];autosize=1;strokeColor=none;fillColor=none;fontSize=18;" parent="1" vertex="1">
          <mxGeometry x="440" y="20" width="290" height="60" as="geometry" />
        </mxCell>
        <mxCell id="9evkWj3kKOrNCPG7-Xbw-8" value="" style="rounded=0;whiteSpace=wrap;html=1;fillColor=none;dashed=1;dashPattern=8 8;" parent="1" vertex="1">
          <mxGeometry x="427" y="114" width="320" height="546" as="geometry" />
        </mxCell>
        <mxCell id="KrD2VouBfRfHa8hHg-D0-112" value="" style="rounded=0;whiteSpace=wrap;html=1;fillColor=none;dashed=1;dashPattern=8 8;" parent="1" vertex="1">
          <mxGeometry x="850" y="415" width="290" height="376" as="geometry" />
        </mxCell>
        <mxCell id="SQYhboU64zJddx07scyN-14" style="edgeStyle=orthogonalEdgeStyle;rounded=0;orthogonalLoop=1;jettySize=auto;html=1;exitX=1;exitY=0.5;exitDx=0;exitDy=0;entryX=0.25;entryY=1;entryDx=0;entryDy=0;strokeWidth=2;" parent="1" source="rL6Rr9J-NVLxC1_8Mzcg-1" target="KrD2VouBfRfHa8hHg-D0-33" edge="1">
          <mxGeometry relative="1" as="geometry">
            <mxPoint x="810" y="680" as="targetPoint" />
            <Array as="points">
              <mxPoint x="430" y="740" />
              <mxPoint x="430" y="720" />
              <mxPoint x="895" y="720" />
            </Array>
          </mxGeometry>
        </mxCell>
        <mxCell id="rL6Rr9J-NVLxC1_8Mzcg-7" value="B4" style="edgeLabel;html=1;align=center;verticalAlign=middle;resizable=0;points=[];" parent="SQYhboU64zJddx07scyN-14" vertex="1" connectable="0">
          <mxGeometry x="-0.8646" y="-1" relative="1" as="geometry">
            <mxPoint x="-41" as="offset" />
          </mxGeometry>
        </mxCell>
        <mxCell id="rL6Rr9J-NVLxC1_8Mzcg-2" style="edgeStyle=orthogonalEdgeStyle;rounded=0;orthogonalLoop=1;jettySize=auto;html=1;exitX=1;exitY=0.75;exitDx=0;exitDy=0;entryX=0;entryY=0.5;entryDx=0;entryDy=0;strokeWidth=2;" parent="1" source="KrD2VouBfRfHa8hHg-D0-2" target="rL6Rr9J-NVLxC1_8Mzcg-1" edge="1">
          <mxGeometry relative="1" as="geometry" />
        </mxCell>
        <mxCell id="rL6Rr9J-NVLxC1_8Mzcg-3" value="B3" style="edgeLabel;html=1;align=center;verticalAlign=middle;resizable=0;points=[];" parent="rL6Rr9J-NVLxC1_8Mzcg-2" vertex="1" connectable="0">
          <mxGeometry relative="1" as="geometry">
            <mxPoint as="offset" />
          </mxGeometry>
        </mxCell>
        <mxCell id="KrD2VouBfRfHa8hHg-D0-2" value="PENDANT CONTROLLER" style="rounded=0;whiteSpace=wrap;html=1;fontSize=10;fillColor=#6a00ff;fontColor=#ffffff;strokeColor=#3700CC;" parent="1" vertex="1">
          <mxGeometry x="43" y="635" width="100" height="140" as="geometry" />
        </mxCell>
        <mxCell id="9evkWj3kKOrNCPG7-Xbw-7" style="edgeStyle=orthogonalEdgeStyle;rounded=0;orthogonalLoop=1;jettySize=auto;html=1;entryX=1;entryY=0.5;entryDx=0;entryDy=0;exitX=0;exitY=0.5;exitDx=0;exitDy=0;strokeWidth=2;" parent="1" source="KrD2VouBfRfHa8hHg-D0-3" target="KrD2VouBfRfHa8hHg-D0-6" edge="1">
          <mxGeometry relative="1" as="geometry">
            <mxPoint x="323" y="460" as="targetPoint" />
            <mxPoint x="451" y="605" as="sourcePoint" />
            <Array as="points">
              <mxPoint x="370" y="595" />
              <mxPoint x="370" y="460" />
            </Array>
          </mxGeometry>
        </mxCell>
        <mxCell id="9evkWj3kKOrNCPG7-Xbw-17" value="A6.1" style="edgeLabel;html=1;align=center;verticalAlign=middle;resizable=0;points=[];" parent="9evkWj3kKOrNCPG7-Xbw-7" vertex="1" connectable="0">
          <mxGeometry relative="1" as="geometry">
            <mxPoint x="110" y="99" as="offset" />
          </mxGeometry>
        </mxCell>
        <mxCell id="9evkWj3kKOrNCPG7-Xbw-18" value="" style="edgeStyle=orthogonalEdgeStyle;rounded=0;orthogonalLoop=1;jettySize=auto;html=1;exitX=1;exitY=0.5;exitDx=0;exitDy=0;entryX=0;entryY=0.5;entryDx=0;entryDy=0;strokeWidth=2;" parent="1" source="KrD2VouBfRfHa8hHg-D0-3" target="KrD2VouBfRfHa8hHg-D0-33" edge="1">
          <mxGeometry x="-0.2101" relative="1" as="geometry">
            <Array as="points">
              <mxPoint x="800" y="595" />
              <mxPoint x="800" y="460" />
            </Array>
            <mxPoint y="1" as="offset" />
          </mxGeometry>
        </mxCell>
        <mxCell id="SQYhboU64zJddx07scyN-1" value="A6.2" style="edgeLabel;html=1;align=center;verticalAlign=middle;resizable=0;points=[];" parent="9evkWj3kKOrNCPG7-Xbw-18" vertex="1" connectable="0">
          <mxGeometry relative="1" as="geometry">
            <mxPoint x="-100" y="20" as="offset" />
          </mxGeometry>
        </mxCell>
        <mxCell id="rL6Rr9J-NVLxC1_8Mzcg-4" style="edgeStyle=orthogonalEdgeStyle;rounded=0;orthogonalLoop=1;jettySize=auto;html=1;exitX=0.5;exitY=1;exitDx=0;exitDy=0;entryX=0.5;entryY=0;entryDx=0;entryDy=0;strokeWidth=2;" parent="1" source="KrD2VouBfRfHa8hHg-D0-3" target="rL6Rr9J-NVLxC1_8Mzcg-1" edge="1">
          <mxGeometry relative="1" as="geometry">
            <Array as="points">
              <mxPoint x="585" y="690" />
              <mxPoint x="243" y="690" />
            </Array>
          </mxGeometry>
        </mxCell>
        <mxCell id="rL6Rr9J-NVLxC1_8Mzcg-6" value="A6.3" style="edgeLabel;html=1;align=center;verticalAlign=middle;resizable=0;points=[];" parent="rL6Rr9J-NVLxC1_8Mzcg-4" vertex="1" connectable="0">
          <mxGeometry x="-0.8938" y="1" relative="1" as="geometry">
            <mxPoint x="1" y="-8" as="offset" />
          </mxGeometry>
        </mxCell>
        <mxCell id="KrD2VouBfRfHa8hHg-D0-3" value="POWER SUPPLY&lt;div&gt;24V 30A&lt;/div&gt;" style="rounded=0;whiteSpace=wrap;html=1;fontSize=10;fillColor=#1ba1e2;fontColor=#ffffff;strokeColor=#006EAF;" parent="1" vertex="1">
          <mxGeometry x="535" y="570" width="100" height="50" as="geometry" />
        </mxCell>
        <mxCell id="KrD2VouBfRfHa8hHg-D0-5" value="MAIN&amp;nbsp;&lt;div&gt;ONTROLLER&lt;/div&gt;" style="rounded=0;whiteSpace=wrap;html=1;fontSize=10;fillColor=#6a00ff;fontColor=#ffffff;strokeColor=#3700CC;" parent="1" vertex="1">
          <mxGeometry x="1020" y="635" width="100" height="140" as="geometry" />
        </mxCell>
        <mxCell id="KrD2VouBfRfHa8hHg-D0-62" value="" style="edgeStyle=orthogonalEdgeStyle;rounded=0;orthogonalLoop=1;jettySize=auto;html=1;strokeWidth=2;" parent="1" source="KrD2VouBfRfHa8hHg-D0-6" target="KrD2VouBfRfHa8hHg-D0-8" edge="1">
          <mxGeometry relative="1" as="geometry" />
        </mxCell>
        <mxCell id="9evkWj3kKOrNCPG7-Xbw-19" value="B1.1" style="edgeLabel;html=1;align=center;verticalAlign=middle;resizable=0;points=[];" parent="KrD2VouBfRfHa8hHg-D0-62" vertex="1" connectable="0">
          <mxGeometry x="0.3515" y="1" relative="1" as="geometry">
            <mxPoint x="-1" y="-3" as="offset" />
          </mxGeometry>
        </mxCell>
        <mxCell id="9evkWj3kKOrNCPG7-Xbw-20" style="edgeStyle=orthogonalEdgeStyle;rounded=0;orthogonalLoop=1;jettySize=auto;html=1;exitX=0.5;exitY=1;exitDx=0;exitDy=0;entryX=0.5;entryY=0;entryDx=0;entryDy=0;strokeWidth=2;" parent="1" source="KrD2VouBfRfHa8hHg-D0-6" target="KrD2VouBfRfHa8hHg-D0-34" edge="1">
          <mxGeometry relative="1" as="geometry">
            <Array as="points">
              <mxPoint x="93" y="510" />
              <mxPoint x="243" y="510" />
            </Array>
          </mxGeometry>
        </mxCell>
        <mxCell id="9evkWj3kKOrNCPG7-Xbw-21" value="B1.2" style="edgeLabel;html=1;align=center;verticalAlign=middle;resizable=0;points=[];" parent="9evkWj3kKOrNCPG7-Xbw-20" vertex="1" connectable="0">
          <mxGeometry relative="1" as="geometry">
            <mxPoint as="offset" />
          </mxGeometry>
        </mxCell>
        <mxCell id="KrD2VouBfRfHa8hHg-D0-6" value="5V&lt;div&gt;BUCK CONVERTER&lt;/div&gt;" style="rounded=0;whiteSpace=wrap;html=1;fontSize=10;fillColor=#1ba1e2;fontColor=#ffffff;strokeColor=#006EAF;" parent="1" vertex="1">
          <mxGeometry x="43" y="435" width="100" height="50" as="geometry" />
        </mxCell>
        <mxCell id="KrD2VouBfRfHa8hHg-D0-31" value="" style="edgeStyle=orthogonalEdgeStyle;rounded=0;orthogonalLoop=1;jettySize=auto;html=1;strokeWidth=2;" parent="1" source="KrD2VouBfRfHa8hHg-D0-8" target="KrD2VouBfRfHa8hHg-D0-2" edge="1">
          <mxGeometry relative="1" as="geometry" />
        </mxCell>
        <mxCell id="9evkWj3kKOrNCPG7-Xbw-22" value="B2.1" style="edgeLabel;html=1;align=center;verticalAlign=middle;resizable=0;points=[];" parent="KrD2VouBfRfHa8hHg-D0-31" vertex="1" connectable="0">
          <mxGeometry x="-0.349" relative="1" as="geometry">
            <mxPoint as="offset" />
          </mxGeometry>
        </mxCell>
        <mxCell id="KrD2VouBfRfHa8hHg-D0-8" value="3,3V&lt;div&gt;BUCK CONVERTER&lt;/div&gt;" style="rounded=0;whiteSpace=wrap;html=1;fontSize=10;fillColor=#76608a;fontColor=#ffffff;strokeColor=#432D57;" parent="1" vertex="1">
          <mxGeometry x="43" y="550" width="100" height="50" as="geometry" />
        </mxCell>
        <mxCell id="KrD2VouBfRfHa8hHg-D0-12" value="&lt;div&gt;MAIN&lt;/div&gt;EMERGENCY&lt;div&gt;STOP&lt;/div&gt;" style="rounded=0;whiteSpace=wrap;html=1;fontSize=10;fillColor=#e3c800;fontColor=#000000;strokeColor=#B09500;" parent="1" vertex="1">
          <mxGeometry x="535" y="310" width="100" height="50" as="geometry" />
        </mxCell>
        <mxCell id="KrD2VouBfRfHa8hHg-D0-97" value="" style="edgeStyle=orthogonalEdgeStyle;rounded=0;orthogonalLoop=1;jettySize=auto;html=1;strokeWidth=2;" parent="1" source="KrD2VouBfRfHa8hHg-D0-20" target="KrD2VouBfRfHa8hHg-D0-27" edge="1">
          <mxGeometry relative="1" as="geometry" />
        </mxCell>
        <mxCell id="9evkWj3kKOrNCPG7-Xbw-28" value="C2" style="edgeLabel;html=1;align=center;verticalAlign=middle;resizable=0;points=[];" parent="KrD2VouBfRfHa8hHg-D0-97" vertex="1" connectable="0">
          <mxGeometry relative="1" as="geometry">
            <mxPoint as="offset" />
          </mxGeometry>
        </mxCell>
        <mxCell id="KrD2VouBfRfHa8hHg-D0-20" value="5V&lt;div&gt;BUCK CONVERTER&lt;/div&gt;" style="rounded=0;whiteSpace=wrap;html=1;fontSize=10;fillColor=#1ba1e2;fontColor=#ffffff;strokeColor=#006EAF;" parent="1" vertex="1">
          <mxGeometry x="1020" y="435" width="100" height="50" as="geometry" />
        </mxCell>
        <mxCell id="KrD2VouBfRfHa8hHg-D0-91" value="A2" style="edgeStyle=orthogonalEdgeStyle;rounded=0;orthogonalLoop=1;jettySize=auto;html=1;strokeWidth=2;" parent="1" source="KrD2VouBfRfHa8hHg-D0-22" target="KrD2VouBfRfHa8hHg-D0-12" edge="1">
          <mxGeometry relative="1" as="geometry" />
        </mxCell>
        <mxCell id="KrD2VouBfRfHa8hHg-D0-22" value="MCB" style="rounded=0;whiteSpace=wrap;html=1;fontSize=10;fillColor=#e3c800;fontColor=#000000;strokeColor=#B09500;" parent="1" vertex="1">
          <mxGeometry x="535" y="220" width="100" height="50" as="geometry" />
        </mxCell>
        <mxCell id="KrD2VouBfRfHa8hHg-D0-90" value="A5" style="edgeStyle=orthogonalEdgeStyle;rounded=0;orthogonalLoop=1;jettySize=auto;html=1;strokeWidth=2;" parent="1" source="KrD2VouBfRfHa8hHg-D0-23" target="KrD2VouBfRfHa8hHg-D0-3" edge="1">
          <mxGeometry relative="1" as="geometry" />
        </mxCell>
        <mxCell id="KrD2VouBfRfHa8hHg-D0-23" value="KONTAKTOR" style="rounded=0;whiteSpace=wrap;html=1;fontSize=10;fillColor=#e3c800;fontColor=#000000;strokeColor=#B09500;" parent="1" vertex="1">
          <mxGeometry x="535" y="480" width="100" height="50" as="geometry" />
        </mxCell>
        <mxCell id="KrD2VouBfRfHa8hHg-D0-98" value="" style="edgeStyle=orthogonalEdgeStyle;rounded=0;orthogonalLoop=1;jettySize=auto;html=1;strokeWidth=2;" parent="1" source="KrD2VouBfRfHa8hHg-D0-27" target="KrD2VouBfRfHa8hHg-D0-5" edge="1">
          <mxGeometry relative="1" as="geometry" />
        </mxCell>
        <mxCell id="9evkWj3kKOrNCPG7-Xbw-29" value="C3" style="edgeLabel;html=1;align=center;verticalAlign=middle;resizable=0;points=[];" parent="KrD2VouBfRfHa8hHg-D0-98" vertex="1" connectable="0">
          <mxGeometry relative="1" as="geometry">
            <mxPoint as="offset" />
          </mxGeometry>
        </mxCell>
        <mxCell id="KrD2VouBfRfHa8hHg-D0-27" value="3,3V&lt;div&gt;BUCK CONVERTER&lt;/div&gt;" style="rounded=0;whiteSpace=wrap;html=1;fontSize=10;fillColor=#76608a;fontColor=#ffffff;strokeColor=#432D57;" parent="1" vertex="1">
          <mxGeometry x="1020" y="550" width="100" height="50" as="geometry" />
        </mxCell>
        <mxCell id="KrD2VouBfRfHa8hHg-D0-111" value="" style="edgeStyle=orthogonalEdgeStyle;rounded=0;orthogonalLoop=1;jettySize=auto;html=1;strokeWidth=2;" parent="1" source="KrD2VouBfRfHa8hHg-D0-33" target="KrD2VouBfRfHa8hHg-D0-20" edge="1">
          <mxGeometry relative="1" as="geometry" />
        </mxCell>
        <mxCell id="9evkWj3kKOrNCPG7-Xbw-26" value="C1.1" style="edgeLabel;html=1;align=center;verticalAlign=middle;resizable=0;points=[];" parent="KrD2VouBfRfHa8hHg-D0-111" vertex="1" connectable="0">
          <mxGeometry relative="1" as="geometry">
            <mxPoint as="offset" />
          </mxGeometry>
        </mxCell>
        <mxCell id="SQYhboU64zJddx07scyN-12" style="edgeStyle=orthogonalEdgeStyle;rounded=0;orthogonalLoop=1;jettySize=auto;html=1;exitX=0.75;exitY=1;exitDx=0;exitDy=0;entryX=1;entryY=0.5;entryDx=0;entryDy=0;strokeWidth=2;" parent="1" source="KrD2VouBfRfHa8hHg-D0-33" target="KrD2VouBfRfHa8hHg-D0-105" edge="1">
          <mxGeometry relative="1" as="geometry" />
        </mxCell>
        <mxCell id="SQYhboU64zJddx07scyN-15" value="C1.2" style="edgeLabel;html=1;align=center;verticalAlign=middle;resizable=0;points=[];" parent="SQYhboU64zJddx07scyN-12" vertex="1" connectable="0">
          <mxGeometry relative="1" as="geometry">
            <mxPoint x="15" y="-137" as="offset" />
          </mxGeometry>
        </mxCell>
        <mxCell id="KrD2VouBfRfHa8hHg-D0-33" value="DC TO DC&lt;div&gt;SSR&lt;/div&gt;" style="rounded=0;whiteSpace=wrap;html=1;fontSize=10;fillColor=#e3c800;fontColor=#000000;strokeColor=#B09500;" parent="1" vertex="1">
          <mxGeometry x="870" y="435" width="100" height="50" as="geometry" />
        </mxCell>
        <mxCell id="9evkWj3kKOrNCPG7-Xbw-24" style="edgeStyle=orthogonalEdgeStyle;rounded=0;orthogonalLoop=1;jettySize=auto;html=1;exitX=0.5;exitY=1;exitDx=0;exitDy=0;entryX=1;entryY=0.25;entryDx=0;entryDy=0;strokeWidth=2;" parent="1" source="KrD2VouBfRfHa8hHg-D0-34" target="KrD2VouBfRfHa8hHg-D0-2" edge="1">
          <mxGeometry relative="1" as="geometry" />
        </mxCell>
        <mxCell id="9evkWj3kKOrNCPG7-Xbw-25" value="B2.2" style="edgeLabel;html=1;align=center;verticalAlign=middle;resizable=0;points=[];" parent="9evkWj3kKOrNCPG7-Xbw-24" vertex="1" connectable="0">
          <mxGeometry relative="1" as="geometry">
            <mxPoint x="-35" as="offset" />
          </mxGeometry>
        </mxCell>
        <mxCell id="KrD2VouBfRfHa8hHg-D0-34" value="&lt;div&gt;&lt;span style=&quot;background-color: initial;&quot;&gt;SECONDARY&lt;/span&gt;&lt;/div&gt;&lt;div&gt;&lt;span style=&quot;background-color: initial;&quot;&gt;EMERGENCY&lt;/span&gt;&lt;br&gt;&lt;/div&gt;&lt;div&gt;STOP&lt;/div&gt;" style="rounded=0;whiteSpace=wrap;html=1;fontSize=10;fillColor=#e3c800;fontColor=#000000;strokeColor=#B09500;" parent="1" vertex="1">
          <mxGeometry x="193" y="550" width="100" height="50" as="geometry" />
        </mxCell>
        <mxCell id="KrD2VouBfRfHa8hHg-D0-92" value="A1" style="edgeStyle=orthogonalEdgeStyle;rounded=0;orthogonalLoop=1;jettySize=auto;html=1;strokeWidth=2;" parent="1" source="KrD2VouBfRfHa8hHg-D0-51" target="KrD2VouBfRfHa8hHg-D0-22" edge="1">
          <mxGeometry relative="1" as="geometry" />
        </mxCell>
        <mxCell id="KrD2VouBfRfHa8hHg-D0-51" value="220V AC" style="rounded=0;whiteSpace=wrap;html=1;fontSize=10;fillColor=#647687;fontColor=#ffffff;strokeColor=#314354;" parent="1" vertex="1">
          <mxGeometry x="535" y="130" width="100" height="50" as="geometry" />
        </mxCell>
        <mxCell id="KrD2VouBfRfHa8hHg-D0-73" value="TEACH PENDANT" style="text;html=1;align=center;verticalAlign=middle;resizable=0;points=[];autosize=1;strokeColor=none;fillColor=none;" parent="1" vertex="1">
          <mxGeometry x="108" y="390" width="120" height="30" as="geometry" />
        </mxCell>
        <mxCell id="KrD2VouBfRfHa8hHg-D0-74" value="MAIN CONTROLLER" style="text;html=1;align=center;verticalAlign=middle;resizable=0;points=[];autosize=1;strokeColor=none;fillColor=none;" parent="1" vertex="1">
          <mxGeometry x="925" y="390" width="140" height="30" as="geometry" />
        </mxCell>
        <mxCell id="KrD2VouBfRfHa8hHg-D0-105" value="STEPPER&lt;div&gt;MOTTOR&lt;/div&gt;" style="rounded=0;whiteSpace=wrap;html=1;fontSize=10;fillColor=#6a00ff;fontColor=#ffffff;strokeColor=#3700CC;" parent="1" vertex="1">
          <mxGeometry x="535" y="741" width="100" height="50" as="geometry" />
        </mxCell>
        <mxCell id="9evkWj3kKOrNCPG7-Xbw-10" value="CONTROL PANEL" style="text;html=1;align=center;verticalAlign=middle;resizable=0;points=[];autosize=1;strokeColor=none;fillColor=none;" parent="1" vertex="1">
          <mxGeometry x="525" y="90" width="120" height="30" as="geometry" />
        </mxCell>
        <mxCell id="SQYhboU64zJddx07scyN-7" style="edgeStyle=orthogonalEdgeStyle;rounded=0;orthogonalLoop=1;jettySize=auto;html=1;exitX=0.5;exitY=1;exitDx=0;exitDy=0;entryX=0.5;entryY=0;entryDx=0;entryDy=0;strokeWidth=2;" parent="1" target="SQYhboU64zJddx07scyN-5" edge="1">
          <mxGeometry relative="1" as="geometry">
            <mxPoint x="585" y="360" as="sourcePoint" />
          </mxGeometry>
        </mxCell>
        <mxCell id="SQYhboU64zJddx07scyN-10" value="A3" style="edgeLabel;html=1;align=center;verticalAlign=middle;resizable=0;points=[];" parent="SQYhboU64zJddx07scyN-7" vertex="1" connectable="0">
          <mxGeometry relative="1" as="geometry">
            <mxPoint as="offset" />
          </mxGeometry>
        </mxCell>
        <mxCell id="SQYhboU64zJddx07scyN-8" style="edgeStyle=orthogonalEdgeStyle;rounded=0;orthogonalLoop=1;jettySize=auto;html=1;exitX=0.5;exitY=1;exitDx=0;exitDy=0;entryX=0.5;entryY=0;entryDx=0;entryDy=0;strokeWidth=2;" parent="1" source="SQYhboU64zJddx07scyN-5" target="KrD2VouBfRfHa8hHg-D0-23" edge="1">
          <mxGeometry relative="1" as="geometry" />
        </mxCell>
        <mxCell id="SQYhboU64zJddx07scyN-11" value="A4" style="edgeLabel;html=1;align=center;verticalAlign=middle;resizable=0;points=[];" parent="SQYhboU64zJddx07scyN-8" vertex="1" connectable="0">
          <mxGeometry relative="1" as="geometry">
            <mxPoint as="offset" />
          </mxGeometry>
        </mxCell>
        <mxCell id="SQYhboU64zJddx07scyN-5" value="&lt;div&gt;START BUTTON&lt;/div&gt;" style="rounded=0;whiteSpace=wrap;html=1;fontSize=10;fillColor=#60a917;fontColor=#ffffff;strokeColor=#2D7600;" parent="1" vertex="1">
          <mxGeometry x="535" y="395" width="100" height="50" as="geometry" />
        </mxCell>
        <mxCell id="rL6Rr9J-NVLxC1_8Mzcg-1" value="&lt;div&gt;OPTOCOUPLER&lt;/div&gt;" style="rounded=0;whiteSpace=wrap;html=1;fontSize=10;fillColor=#e3c800;fontColor=#000000;strokeColor=#B09500;" parent="1" vertex="1">
          <mxGeometry x="193" y="715" width="100" height="50" as="geometry" />
        </mxCell>
      </root>
    </mxGraphModel>
  </diagram>
  <diagram name="Tanpa Penanda" id="wiGUJEwd2SkZGfHFVd0_">
    <mxGraphModel dx="1105" dy="654" grid="1" gridSize="10" guides="1" tooltips="1" connect="1" arrows="1" fold="1" page="1" pageScale="1" pageWidth="1169" pageHeight="827" math="0" shadow="0">
      <root>
        <mxCell id="Bf83HMx30Rb9movPhv0h-0" />
        <mxCell id="Bf83HMx30Rb9movPhv0h-1" parent="Bf83HMx30Rb9movPhv0h-0" />
        <mxCell id="Bf83HMx30Rb9movPhv0h-2" value="" style="rounded=0;whiteSpace=wrap;html=1;fillColor=none;dashed=1;dashPattern=8 8;fontSize=12;strokeWidth=2;" parent="Bf83HMx30Rb9movPhv0h-1" vertex="1">
          <mxGeometry x="80" y="415" width="307" height="376" as="geometry" />
        </mxCell>
        <mxCell id="Bf83HMx30Rb9movPhv0h-4" value="" style="rounded=0;whiteSpace=wrap;html=1;fillColor=none;dashed=1;dashPattern=8 8;fontSize=12;strokeWidth=2;" parent="Bf83HMx30Rb9movPhv0h-1" vertex="1">
          <mxGeometry x="430" y="54" width="320" height="616" as="geometry" />
        </mxCell>
        <mxCell id="Bf83HMx30Rb9movPhv0h-5" value="" style="rounded=0;whiteSpace=wrap;html=1;fillColor=none;dashed=1;dashPattern=8 8;fontSize=12;strokeWidth=2;" parent="Bf83HMx30Rb9movPhv0h-1" vertex="1">
          <mxGeometry x="790" y="415" width="180" height="376" as="geometry" />
        </mxCell>
        <mxCell id="Bf83HMx30Rb9movPhv0h-10" value="PENDANT CONTROLLER" style="rounded=0;whiteSpace=wrap;html=1;fontSize=12;" parent="Bf83HMx30Rb9movPhv0h-1" vertex="1">
          <mxGeometry x="100" y="635" width="100" height="140" as="geometry" />
        </mxCell>
        <mxCell id="Bf83HMx30Rb9movPhv0h-11" style="edgeStyle=orthogonalEdgeStyle;rounded=0;orthogonalLoop=1;jettySize=auto;html=1;entryX=1;entryY=0.5;entryDx=0;entryDy=0;exitX=0;exitY=0.5;exitDx=0;exitDy=0;strokeWidth=2;fontSize=12;" parent="Bf83HMx30Rb9movPhv0h-1" source="Bf83HMx30Rb9movPhv0h-17" target="Bf83HMx30Rb9movPhv0h-23" edge="1">
          <mxGeometry relative="1" as="geometry">
            <mxPoint x="323" y="460" as="targetPoint" />
            <mxPoint x="451" y="605" as="sourcePoint" />
            <Array as="points">
              <mxPoint x="410" y="535" />
              <mxPoint x="410" y="485" />
            </Array>
          </mxGeometry>
        </mxCell>
        <mxCell id="Bf83HMx30Rb9movPhv0h-13" value="" style="edgeStyle=orthogonalEdgeStyle;rounded=0;orthogonalLoop=1;jettySize=auto;html=1;exitX=1;exitY=0.5;exitDx=0;exitDy=0;entryX=0;entryY=0.5;entryDx=0;entryDy=0;strokeWidth=2;fontSize=12;" parent="Bf83HMx30Rb9movPhv0h-1" source="Bf83HMx30Rb9movPhv0h-17" target="Bf83HMx30Rb9movPhv0h-30" edge="1">
          <mxGeometry x="-0.2101" relative="1" as="geometry">
            <Array as="points">
              <mxPoint x="770" y="535" />
              <mxPoint x="770" y="485" />
            </Array>
            <mxPoint y="1" as="offset" />
            <mxPoint x="810" y="460" as="targetPoint" />
          </mxGeometry>
        </mxCell>
        <mxCell id="_iwysJ5tphWdQ3VHbQ0h-4" value="" style="edgeStyle=orthogonalEdgeStyle;rounded=0;orthogonalLoop=1;jettySize=auto;html=1;strokeWidth=2;" edge="1" parent="Bf83HMx30Rb9movPhv0h-1" source="Bf83HMx30Rb9movPhv0h-17" target="_iwysJ5tphWdQ3VHbQ0h-0">
          <mxGeometry relative="1" as="geometry" />
        </mxCell>
        <mxCell id="_iwysJ5tphWdQ3VHbQ0h-10" style="edgeStyle=orthogonalEdgeStyle;rounded=0;orthogonalLoop=1;jettySize=auto;html=1;exitX=0;exitY=0.5;exitDx=0;exitDy=0;entryX=0.5;entryY=0;entryDx=0;entryDy=0;strokeWidth=2;" edge="1" parent="Bf83HMx30Rb9movPhv0h-1" source="Bf83HMx30Rb9movPhv0h-17" target="Bf83HMx30Rb9movPhv0h-45">
          <mxGeometry relative="1" as="geometry">
            <Array as="points">
              <mxPoint x="410" y="535" />
              <mxPoint x="410" y="485" />
              <mxPoint x="300" y="485" />
            </Array>
          </mxGeometry>
        </mxCell>
        <mxCell id="Bf83HMx30Rb9movPhv0h-17" value="&lt;div&gt;PSU SMPS&lt;/div&gt;&lt;span style=&quot;background-color: initial;&quot;&gt;24V 30A&lt;/span&gt;" style="rounded=0;whiteSpace=wrap;html=1;fontSize=12;" parent="Bf83HMx30Rb9movPhv0h-1" vertex="1">
          <mxGeometry x="538" y="510" width="100" height="50" as="geometry" />
        </mxCell>
        <mxCell id="Bf83HMx30Rb9movPhv0h-18" value="MAIN&amp;nbsp;&lt;div style=&quot;font-size: 12px;&quot;&gt;ONTROLLER&lt;/div&gt;" style="rounded=0;whiteSpace=wrap;html=1;fontSize=12;" parent="Bf83HMx30Rb9movPhv0h-1" vertex="1">
          <mxGeometry x="830" y="635" width="100" height="140" as="geometry" />
        </mxCell>
        <mxCell id="Bf83HMx30Rb9movPhv0h-19" value="" style="edgeStyle=orthogonalEdgeStyle;rounded=0;orthogonalLoop=1;jettySize=auto;html=1;strokeWidth=2;fontSize=12;" parent="Bf83HMx30Rb9movPhv0h-1" source="Bf83HMx30Rb9movPhv0h-23" target="Bf83HMx30Rb9movPhv0h-26" edge="1">
          <mxGeometry relative="1" as="geometry" />
        </mxCell>
        <mxCell id="Bf83HMx30Rb9movPhv0h-23" value="5V&lt;div style=&quot;font-size: 12px;&quot;&gt;BUCK CONVERTER&lt;/div&gt;" style="rounded=0;whiteSpace=wrap;html=1;fontSize=12;" parent="Bf83HMx30Rb9movPhv0h-1" vertex="1">
          <mxGeometry x="100" y="460" width="100" height="50" as="geometry" />
        </mxCell>
        <mxCell id="Bf83HMx30Rb9movPhv0h-24" value="" style="edgeStyle=orthogonalEdgeStyle;rounded=0;orthogonalLoop=1;jettySize=auto;html=1;strokeWidth=2;fontSize=12;" parent="Bf83HMx30Rb9movPhv0h-1" source="Bf83HMx30Rb9movPhv0h-26" target="Bf83HMx30Rb9movPhv0h-10" edge="1">
          <mxGeometry relative="1" as="geometry" />
        </mxCell>
        <mxCell id="Bf83HMx30Rb9movPhv0h-26" value="3,3V&lt;div style=&quot;font-size: 12px;&quot;&gt;BUCK CONVERTER&lt;/div&gt;" style="rounded=0;whiteSpace=wrap;html=1;fontSize=12;" parent="Bf83HMx30Rb9movPhv0h-1" vertex="1">
          <mxGeometry x="100" y="550" width="100" height="50" as="geometry" />
        </mxCell>
        <mxCell id="BRxXSbf58qfWoh5DdA0u-0" value="" style="edgeStyle=orthogonalEdgeStyle;rounded=0;orthogonalLoop=1;jettySize=auto;html=1;fontSize=12;" parent="Bf83HMx30Rb9movPhv0h-1" source="Bf83HMx30Rb9movPhv0h-27" target="Bf83HMx30Rb9movPhv0h-56" edge="1">
          <mxGeometry relative="1" as="geometry" />
        </mxCell>
        <mxCell id="Bf83HMx30Rb9movPhv0h-27" value="&lt;div style=&quot;font-size: 12px;&quot;&gt;MAIN&lt;/div&gt;EMERGENCY&lt;div style=&quot;font-size: 12px;&quot;&gt;STOP&lt;/div&gt;" style="rounded=0;whiteSpace=wrap;html=1;fontSize=12;" parent="Bf83HMx30Rb9movPhv0h-1" vertex="1">
          <mxGeometry x="538" y="250" width="100" height="50" as="geometry" />
        </mxCell>
        <mxCell id="Bf83HMx30Rb9movPhv0h-28" value="" style="edgeStyle=orthogonalEdgeStyle;rounded=0;orthogonalLoop=1;jettySize=auto;html=1;strokeWidth=2;fontSize=12;" parent="Bf83HMx30Rb9movPhv0h-1" source="Bf83HMx30Rb9movPhv0h-30" target="Bf83HMx30Rb9movPhv0h-37" edge="1">
          <mxGeometry relative="1" as="geometry" />
        </mxCell>
        <mxCell id="Bf83HMx30Rb9movPhv0h-30" value="5V&lt;div style=&quot;font-size: 12px;&quot;&gt;BUCK CONVERTER&lt;/div&gt;" style="rounded=0;whiteSpace=wrap;html=1;fontSize=12;" parent="Bf83HMx30Rb9movPhv0h-1" vertex="1">
          <mxGeometry x="830" y="460" width="100" height="50" as="geometry" />
        </mxCell>
        <mxCell id="BRxXSbf58qfWoh5DdA0u-1" value="" style="edgeStyle=orthogonalEdgeStyle;rounded=0;orthogonalLoop=1;jettySize=auto;html=1;strokeWidth=2;fontSize=12;" parent="Bf83HMx30Rb9movPhv0h-1" source="Bf83HMx30Rb9movPhv0h-32" target="Bf83HMx30Rb9movPhv0h-27" edge="1">
          <mxGeometry relative="1" as="geometry" />
        </mxCell>
        <mxCell id="Bf83HMx30Rb9movPhv0h-32" value="MCB" style="rounded=0;whiteSpace=wrap;html=1;fontSize=12;" parent="Bf83HMx30Rb9movPhv0h-1" vertex="1">
          <mxGeometry x="538" y="160" width="100" height="50" as="geometry" />
        </mxCell>
        <mxCell id="_iwysJ5tphWdQ3VHbQ0h-5" style="edgeStyle=orthogonalEdgeStyle;rounded=0;orthogonalLoop=1;jettySize=auto;html=1;exitX=0.5;exitY=1;exitDx=0;exitDy=0;entryX=0.5;entryY=0;entryDx=0;entryDy=0;strokeWidth=2;" edge="1" parent="Bf83HMx30Rb9movPhv0h-1" source="Bf83HMx30Rb9movPhv0h-34" target="Bf83HMx30Rb9movPhv0h-17">
          <mxGeometry relative="1" as="geometry" />
        </mxCell>
        <mxCell id="Bf83HMx30Rb9movPhv0h-34" value="KONTAKTOR" style="rounded=0;whiteSpace=wrap;html=1;fontSize=12;" parent="Bf83HMx30Rb9movPhv0h-1" vertex="1">
          <mxGeometry x="538" y="420" width="100" height="50" as="geometry" />
        </mxCell>
        <mxCell id="Bf83HMx30Rb9movPhv0h-35" value="" style="edgeStyle=orthogonalEdgeStyle;rounded=0;orthogonalLoop=1;jettySize=auto;html=1;strokeWidth=2;fontSize=12;" parent="Bf83HMx30Rb9movPhv0h-1" source="Bf83HMx30Rb9movPhv0h-37" target="Bf83HMx30Rb9movPhv0h-18" edge="1">
          <mxGeometry relative="1" as="geometry" />
        </mxCell>
        <mxCell id="Bf83HMx30Rb9movPhv0h-37" value="3,3V&lt;div style=&quot;font-size: 12px;&quot;&gt;BUCK CONVERTER&lt;/div&gt;" style="rounded=0;whiteSpace=wrap;html=1;fontSize=12;" parent="Bf83HMx30Rb9movPhv0h-1" vertex="1">
          <mxGeometry x="830" y="550" width="100" height="50" as="geometry" />
        </mxCell>
        <mxCell id="Bf83HMx30Rb9movPhv0h-43" style="edgeStyle=orthogonalEdgeStyle;rounded=0;orthogonalLoop=1;jettySize=auto;html=1;exitX=0.5;exitY=1;exitDx=0;exitDy=0;entryX=1;entryY=0.25;entryDx=0;entryDy=0;strokeWidth=2;fontSize=12;endArrow=none;endFill=0;startArrow=classic;startFill=1;" parent="Bf83HMx30Rb9movPhv0h-1" source="Bf83HMx30Rb9movPhv0h-45" target="Bf83HMx30Rb9movPhv0h-10" edge="1">
          <mxGeometry relative="1" as="geometry" />
        </mxCell>
        <mxCell id="_iwysJ5tphWdQ3VHbQ0h-12" style="edgeStyle=orthogonalEdgeStyle;rounded=0;orthogonalLoop=1;jettySize=auto;html=1;exitX=1;exitY=0.5;exitDx=0;exitDy=0;entryX=0;entryY=0.5;entryDx=0;entryDy=0;strokeWidth=2;" edge="1" parent="Bf83HMx30Rb9movPhv0h-1" source="Bf83HMx30Rb9movPhv0h-45" target="_iwysJ5tphWdQ3VHbQ0h-0">
          <mxGeometry relative="1" as="geometry">
            <Array as="points">
              <mxPoint x="410" y="575" />
              <mxPoint x="410" y="625" />
            </Array>
          </mxGeometry>
        </mxCell>
        <mxCell id="Bf83HMx30Rb9movPhv0h-45" value="&lt;div style=&quot;font-size: 12px;&quot;&gt;OPTOCOUPLER&lt;/div&gt;" style="rounded=0;whiteSpace=wrap;html=1;fontSize=12;" parent="Bf83HMx30Rb9movPhv0h-1" vertex="1">
          <mxGeometry x="250" y="550" width="100" height="50" as="geometry" />
        </mxCell>
        <mxCell id="BRxXSbf58qfWoh5DdA0u-2" style="edgeStyle=orthogonalEdgeStyle;rounded=0;orthogonalLoop=1;jettySize=auto;html=1;exitX=0.5;exitY=1;exitDx=0;exitDy=0;entryX=0.5;entryY=0;entryDx=0;entryDy=0;strokeWidth=2;fontSize=12;" parent="Bf83HMx30Rb9movPhv0h-1" source="Bf83HMx30Rb9movPhv0h-47" target="Bf83HMx30Rb9movPhv0h-32" edge="1">
          <mxGeometry relative="1" as="geometry" />
        </mxCell>
        <mxCell id="Bf83HMx30Rb9movPhv0h-47" value="220V AC" style="rounded=0;whiteSpace=wrap;html=1;fontSize=12;" parent="Bf83HMx30Rb9movPhv0h-1" vertex="1">
          <mxGeometry x="538" y="70" width="100" height="50" as="geometry" />
        </mxCell>
        <mxCell id="Bf83HMx30Rb9movPhv0h-48" value="TEACH PENDANT" style="text;html=1;align=center;verticalAlign=middle;resizable=0;points=[];autosize=1;strokeColor=none;fillColor=none;fontSize=12;" parent="Bf83HMx30Rb9movPhv0h-1" vertex="1">
          <mxGeometry x="173.5" y="385" width="120" height="30" as="geometry" />
        </mxCell>
        <mxCell id="Bf83HMx30Rb9movPhv0h-49" value="MAIN CONTROLLER" style="text;html=1;align=center;verticalAlign=middle;resizable=0;points=[];autosize=1;strokeColor=none;fillColor=none;fontSize=12;" parent="Bf83HMx30Rb9movPhv0h-1" vertex="1">
          <mxGeometry x="810" y="385" width="140" height="30" as="geometry" />
        </mxCell>
        <mxCell id="Bf83HMx30Rb9movPhv0h-50" value="STEPPER&lt;div style=&quot;font-size: 12px;&quot;&gt;MOTTOR&lt;/div&gt;" style="rounded=0;whiteSpace=wrap;html=1;fontSize=12;" parent="Bf83HMx30Rb9movPhv0h-1" vertex="1">
          <mxGeometry x="538" y="715" width="100" height="50" as="geometry" />
        </mxCell>
        <mxCell id="Bf83HMx30Rb9movPhv0h-51" value="CONTROL PANEL" style="text;html=1;align=center;verticalAlign=middle;resizable=0;points=[];autosize=1;strokeColor=none;fillColor=none;" parent="Bf83HMx30Rb9movPhv0h-1" vertex="1">
          <mxGeometry x="528" y="30" width="120" height="30" as="geometry" />
        </mxCell>
        <mxCell id="Bf83HMx30Rb9movPhv0h-52" style="edgeStyle=orthogonalEdgeStyle;rounded=0;orthogonalLoop=1;jettySize=auto;html=1;exitX=0.5;exitY=1;exitDx=0;exitDy=0;entryX=0.5;entryY=0;entryDx=0;entryDy=0;strokeWidth=2;fontSize=12;" parent="Bf83HMx30Rb9movPhv0h-1" target="Bf83HMx30Rb9movPhv0h-56" edge="1">
          <mxGeometry relative="1" as="geometry">
            <mxPoint x="588" y="300" as="sourcePoint" />
          </mxGeometry>
        </mxCell>
        <mxCell id="Bf83HMx30Rb9movPhv0h-54" style="edgeStyle=orthogonalEdgeStyle;rounded=0;orthogonalLoop=1;jettySize=auto;html=1;exitX=0.5;exitY=1;exitDx=0;exitDy=0;entryX=0.5;entryY=0;entryDx=0;entryDy=0;strokeWidth=2;fontSize=12;" parent="Bf83HMx30Rb9movPhv0h-1" source="Bf83HMx30Rb9movPhv0h-56" target="Bf83HMx30Rb9movPhv0h-34" edge="1">
          <mxGeometry relative="1" as="geometry" />
        </mxCell>
        <mxCell id="Bf83HMx30Rb9movPhv0h-56" value="&lt;div style=&quot;font-size: 12px;&quot;&gt;START BUTTON&lt;/div&gt;" style="rounded=0;whiteSpace=wrap;html=1;fontSize=12;" parent="Bf83HMx30Rb9movPhv0h-1" vertex="1">
          <mxGeometry x="538" y="335" width="100" height="50" as="geometry" />
        </mxCell>
        <mxCell id="_iwysJ5tphWdQ3VHbQ0h-7" style="edgeStyle=orthogonalEdgeStyle;rounded=0;orthogonalLoop=1;jettySize=auto;html=1;exitX=0.5;exitY=1;exitDx=0;exitDy=0;entryX=0.5;entryY=0;entryDx=0;entryDy=0;strokeWidth=2;" edge="1" parent="Bf83HMx30Rb9movPhv0h-1" source="_iwysJ5tphWdQ3VHbQ0h-0" target="Bf83HMx30Rb9movPhv0h-50">
          <mxGeometry relative="1" as="geometry" />
        </mxCell>
        <mxCell id="_iwysJ5tphWdQ3VHbQ0h-0" value="DC TO DC&lt;div style=&quot;font-size: 12px;&quot;&gt;SSR&lt;/div&gt;" style="rounded=0;whiteSpace=wrap;html=1;fontSize=12;" vertex="1" parent="Bf83HMx30Rb9movPhv0h-1">
          <mxGeometry x="538" y="600" width="100" height="50" as="geometry" />
        </mxCell>
        <mxCell id="_iwysJ5tphWdQ3VHbQ0h-8" style="edgeStyle=orthogonalEdgeStyle;rounded=0;orthogonalLoop=1;jettySize=auto;html=1;exitX=1;exitY=0.75;exitDx=0;exitDy=0;entryX=0;entryY=0.5;entryDx=0;entryDy=0;strokeWidth=2;fontSize=12;endArrow=none;endFill=0;startArrow=classic;startFill=1;" edge="1" parent="Bf83HMx30Rb9movPhv0h-1" target="_iwysJ5tphWdQ3VHbQ0h-9">
          <mxGeometry relative="1" as="geometry">
            <mxPoint x="200" y="740" as="sourcePoint" />
          </mxGeometry>
        </mxCell>
        <mxCell id="_iwysJ5tphWdQ3VHbQ0h-9" value="&lt;div style=&quot;font-size: 12px;&quot;&gt;&lt;div&gt;&lt;span style=&quot;background-color: initial;&quot;&gt;SECONDARY&lt;/span&gt;&lt;/div&gt;&lt;div&gt;&lt;span style=&quot;background-color: initial;&quot;&gt;EMERGENCY&lt;/span&gt;&lt;br&gt;&lt;/div&gt;&lt;div&gt;STOP&lt;/div&gt;&lt;/div&gt;" style="rounded=0;whiteSpace=wrap;html=1;fontSize=12;" vertex="1" parent="Bf83HMx30Rb9movPhv0h-1">
          <mxGeometry x="250" y="715" width="100" height="50" as="geometry" />
        </mxCell>
      </root>
    </mxGraphModel>
  </diagram>
</mxfile>
